<svg width="15" height="15" viewBox="0 0 15 15" fill="none" xmlns="http://www.w3.org/2000/svg">
<path d="M1.69109 0.298303C1.30423 -0.0994345 0.677005 -0.0994345 0.290145 0.298303C-0.0967151 0.69604 -0.0967151 1.3409 0.290145 1.73864L6.09903 7.2891L0.290145 13.2613C-0.096715 13.6591 -0.096715 14.3039 0.290145 14.7017C0.677005 15.0994 1.30423 15.0994 1.69109 14.7017L7.49998 8.72943L13.3089 14.7017C13.6958 15.0994 14.323 15.0994 14.7099 14.7017C15.0967 14.304 15.0967 13.6591 14.7099 13.2614L8.90092 7.2891L14.7099 1.73864C15.0967 1.3409 15.0967 0.69604 14.7099 0.298303C14.323 -0.0994345 13.6958 -0.0994341 13.3089 0.298303L7.49998 5.84876L1.69109 0.298303Z" fill="#222222" fill-opacity="0.5"/>
</svg>
