<svg width="91" height="18" viewBox="0 0 91 18" fill="none" xmlns="http://www.w3.org/2000/svg">
<g clip-path="url(#clip0_1_246)">
<g clip-path="url(#clip1_1_246)">
<path d="M44.3486 0.71936H38.8357V17.7957H44.3486V0.71936Z" fill="#859BA6"/>
<path d="M3.57253 7.0918L0 17.7943H7.58696L3.57253 7.0918Z" fill="#859BA6"/>
<path d="M4.69751 3.91552L5.84427 0.711792H10.0127L16.0982 17.7943H9.61597L4.69751 3.91552Z" fill="#859BA6"/>
<path d="M13.1652 3.87284L14.3119 0.711792H18.4586L24.5456 17.7943H18.04L13.1652 3.87284Z" fill="#859BA6"/>
<path d="M86.0956 2.42794C86.0956 -0.809314 91 -0.809314 91 2.42794C91 5.6652 86.0956 5.6652 86.0956 2.42794ZM90.723 2.42794C90.723 -0.472481 86.3741 -0.472481 86.3741 2.42794C86.3741 5.32837 90.723 5.33446 90.723 2.42794ZM89.7116 3.77985V3.81338H89.3942L88.5882 2.81355H87.8429V3.81338H87.5519V1.05622H88.6582C89.2075 1.05622 89.6183 1.39153 89.6183 1.9387C89.6183 2.38374 89.3273 2.71143 88.8885 2.77849L89.7116 3.77832V3.77985ZM87.8414 2.56207H88.6396C89.0255 2.56207 89.3258 2.33497 89.3258 1.94022C89.3258 1.56986 89.0255 1.31837 88.6396 1.31837H87.8414V2.56207Z" fill="#859BA6"/>
<path d="M70.8574 10.0288L68.2324 17.7943H73.767L70.8574 10.0288Z" fill="#859BA6"/>
<path d="M71.8057 7.84798L72.5992 5.63037H77.054L81.3765 17.7945H75.3782L71.8057 7.84798Z" fill="#859BA6"/>
<path d="M79.4142 7.80354L80.2513 5.63013H84.706L88.985 17.7942H82.9431L79.4142 7.80354Z" fill="#859BA6"/>
<path d="M37.2922 12.7296C37.2922 12.7296 37.8804 5.21256 30.8971 5.21256C30.8971 5.21256 24.4429 4.83763 24.4429 11.7648C24.4429 11.7648 24.25 18 30.8738 18C30.8738 18 34.8664 17.9863 36.4395 15.1347L35.8747 14.7872C35.8747 14.7872 34.3918 16.9423 31.0947 16.9423C31.0947 16.9423 30.1378 16.9118 29.8733 16.8569L29.8826 12.7296H37.2922ZM29.8017 11.7145V7.49419C29.8017 7.12687 30.0289 6.46387 30.8302 6.46387C31.5506 6.46387 31.7856 7.14821 31.7856 7.51553V11.713H29.8002L29.8017 11.7145Z" fill="#859BA6"/>
<path d="M68.5569 12.7296C68.5569 12.7296 69.1451 5.21256 62.1618 5.21256C62.1618 5.21256 55.7076 4.83763 55.7076 11.7648C55.7076 11.7648 55.5147 18 62.1385 18C62.1385 18 66.1311 17.9863 67.7042 15.1347L67.1394 14.7872C67.1394 14.7872 65.6566 16.9423 62.3594 16.9423C62.3594 16.9423 61.4025 16.9118 61.138 16.8569L61.1473 12.7296H68.5569ZM61.0664 11.7145V7.49419C61.0664 7.12687 61.2936 6.46387 62.0949 6.46387C62.8153 6.46387 63.0503 7.14821 63.0503 7.51553V11.713H61.0649L61.0664 11.7145Z" fill="#859BA6"/>
<path d="M45.1281 4.39108L52.6186 1.22241V3.28914H82.7548V4.39108H52.6186V15.4944C52.6186 15.4944 52.6513 16.3159 53.3686 16.3159C54.0859 16.3159 54.7254 15.3755 54.7254 15.3755L55.172 15.8129C55.172 15.8129 54.296 18.0001 51.0533 18.0001C47.8106 18.0001 46.919 15.7962 46.919 14.2949V4.39108H45.1297H45.1281Z" fill="#859BA6"/>
</g>
</g>
<defs>
<clipPath id="clip0_1_246">
<rect width="91" height="18" fill="white"/>
</clipPath>
<clipPath id="clip1_1_246">
<rect width="91" height="18" fill="white"/>
</clipPath>
</defs>
</svg>
