<svg width="41" height="40" viewBox="0 0 41 40" fill="none" xmlns="http://www.w3.org/2000/svg">
<path d="M27.0468 11.9651C26.7191 11.6391 26.1897 11.6391 25.8613 11.9651L17.549 20.2861L15.1704 17.7644C15.0121 17.5932 14.7899 17.4959 14.5566 17.4953C14.3238 17.4959 14.1017 17.5932 13.9434 17.7644L10.9598 20.9667C10.6449 21.2921 10.6449 21.8092 10.9598 22.1346L16.9023 28.0852H16.9018C17.0606 28.2429 17.2752 28.3303 17.4986 28.3291C17.722 28.3303 17.9366 28.2429 18.0954 28.0852L30.0304 16.1251C30.1893 15.9674 30.279 15.7522 30.279 15.5282C30.279 15.3043 30.1893 15.0897 30.0304 14.9314L27.0468 11.9651ZM17.5156 26.2532L12.7415 21.471L14.5572 19.5211L16.9187 22.0427C17.077 22.2068 17.2957 22.2995 17.5238 22.2995C17.7518 22.2995 17.9705 22.2068 18.1288 22.0427L26.4581 13.7052L28.2486 15.4957L17.5156 26.2532Z" fill="#859BA6"/>
<path d="M20.5 3.33352C16.0794 3.33352 11.8407 5.0894 8.71462 8.21481C5.58919 11.3408 3.83331 15.5796 3.83331 20.0001C3.83331 24.4206 5.58919 28.6594 8.71462 31.7854C11.8407 34.9108 16.0794 36.6667 20.5 36.6667C24.9205 36.6667 29.1593 34.9108 32.2853 31.7854C35.4108 28.6594 37.1666 24.4206 37.1666 20.0001C37.1625 15.5814 35.4049 11.3443 32.2799 8.22007C29.1557 5.09525 24.9186 3.33758 20.4998 3.33337L20.5 3.33352ZM20.5 34.9779C16.5251 34.9779 12.713 33.3986 9.90242 30.5873C7.09172 27.7766 5.51355 23.9641 5.51415 19.9892C5.51475 16.0142 7.09473 12.2022 9.90662 9.39225C12.7178 6.58216 16.5311 5.0046 20.506 5.00625C24.4809 5.00742 28.2924 6.58802 31.1019 9.40035C33.9114 12.2121 35.4885 16.0254 35.4861 20.0003C35.4814 23.9735 33.9013 27.7826 31.092 30.5919C28.2826 33.4013 24.4734 34.9814 20.5003 34.986L20.5 34.9779Z" fill="#859BA6"/>
</svg>
